<svg version="1.1" id="Layer_1" xmlns="http://www.w3.org/2000/svg" xmlns:xlink="http://www.w3.org/1999/xlink" x="0px" y="0px" width="329.973px" height="101.93px" viewBox="0 0 329.973 101.93" enable-background="new 0 0 329.973 101.93" xml:space="preserve">
    <path fill-rule="evenodd" clip-rule="evenodd" fill="#006D38" d="M308.413,29.778c0.379,0,0.698,0.03,0.698,0.418 c0,0.419-0.578,0.349-0.998,0.349h-0.458v-0.768H308.413L308.413,29.778z M308.732,30.995c0.418-0.02,0.838-0.239,0.838-0.848 c0-0.648-0.52-0.818-1.058-0.818h-1.296v3.082h0.438v-1.416h0.558l0.799,1.416h0.498L308.732,30.995L308.732,30.995z M308.273,28.562c-1.257,0-2.313,0.997-2.313,2.293c0,1.287,1.057,2.284,2.313,2.284c1.236,0,2.293-0.997,2.293-2.284 C310.566,29.559,309.509,28.562,308.273,28.562L308.273,28.562z M308.273,33.587c1.516,0,2.732-1.207,2.732-2.732 s-1.217-2.742-2.732-2.742c-1.535,0-2.752,1.216-2.752,2.742S306.738,33.587,308.273,33.587z"></path>
    <path fill-rule="evenodd" clip-rule="evenodd" fill="#006D38" d="M120.449,53.981c3.49,0,6.562-2.033,7.739-5.175 c0.618-1.675,0.937-3.939,0.837-6.412c-0.1-2.942-0.778-5.545-1.755-7.2c-1.456-2.403-4.089-4.009-7.121-4.009 c-3.251,0-6.063,1.875-7.419,4.587c-0.798,1.726-1.237,4.258-1.137,7.061c0.1,2.703,0.678,5.126,1.516,6.782 C114.525,52.216,117.298,53.981,120.449,53.981L120.449,53.981z M138.838,42.533c0,9.324-7.559,16.983-18.529,16.983 c-11.01,0-18.569-7.659-18.569-16.983c0-9.325,7.041-16.974,18.569-16.974C131.618,25.56,138.838,33.208,138.838,42.533z"></path>
    <path fill-rule="evenodd" clip-rule="evenodd" fill="#006D38" d="M172.107,26.866l0.978,8.078l-1.735,0.25l-0.06,0.01 c-2.413-2.264-5.645-3.66-9.215-3.66c-0.419,0-0.838,0.02-1.257,0.07c-5.485,0.538-9.753,5.125-9.753,10.72 c0,4.408,2.653,8.208,6.482,9.873c1.097,0.479,2.394,0.808,3.77,1.037c4.548,0.778,10.032,0.409,13.084,0.09l-3.97,5.614l-0.02,0.07 c-1.177,0.139-2.373,0.229-3.59,0.279c-4.887,0.209-9.354-0.189-12.686-1.098c-7.419-2.283-12.745-8.497-12.745-15.796 c0-8.197,6.702-15.019,15.577-16.435c1.735-0.24,3.47-0.349,5.266-0.349C165.625,25.62,168.935,26.058,172.107,26.866z"></path>
    <path fill-rule="evenodd" clip-rule="evenodd" fill="#006D38" d="M187.265,34.086c1.576-1.765,3.689-2.853,6.043-2.853 c2.075,0,3.97,0.858,5.506,2.294c1.775,1.795,2.094,4.438,2.134,5.804h-10.451l-3.271,5.495l23.057-0.01 c0.119-0.778,0.159-1.576,0.159-2.384c0-11.099-8.776-16.804-17.812-16.804c-9.215,0-17.292,7.5-17.292,16.704 c0,6.941,4.308,12.905,10.411,15.388c6.004,2.384,11.029,1.955,19.027,1.227l3.352-5.246c0,0-5.127,0.33-9.395,0.24 c-0.239-0.01-0.479-0.02-0.738-0.03c-2.572-0.13-6.063-0.768-9.813-3.64c-2.234-1.905-3.71-5.026-3.71-8.547 C184.473,38.713,185.531,36.001,187.265,34.086z"></path>
    <path fill-rule="evenodd" clip-rule="evenodd" fill="#006D38" d="M228.113,34.286c-2.193,1.057-4.009,3.271-4.707,6.113 c-0.238,0.888-0.359,1.785-0.318,2.643l-0.021,0.209c0,0-0.021,10.242,0,10.242v0.918c0.18,1.605,0.259,3.051,0.858,4.388h-3.352 h-7.818c0.578-1.286,0.719-2.753,0.818-4.198V30.207l-0.021-0.11c-0.1-1.316-0.279-2.633-0.798-3.799l10.191-0.01v5.705 c1.916-2.763,5.665-5.026,10.232-5.834c1.256-0.22,2.533-0.279,3.73-0.259l0.438,9.194l-1.375,0.708l-0.041,0.02 c-0.219-0.309-0.559-0.788-0.857-1.037c-1.217-1.007-2.771-1.396-4.428-1.157C229.789,33.677,228.912,33.897,228.113,34.286z"></path>
    <path fill-rule="evenodd" clip-rule="evenodd" fill="#006D38" d="M249.535,34.086c1.575-1.765,3.689-2.853,6.023-2.853 c2.094,0,3.988,0.858,5.504,2.294c1.796,1.795,2.115,4.438,2.135,5.804h-10.432l-3.291,5.495l23.057-0.01 c0.12-0.778,0.18-1.576,0.18-2.384c-0.02-11.099-8.775-16.804-17.811-16.804c-9.215,0-17.313,7.5-17.313,16.704 c0,6.941,4.309,12.905,10.432,15.388c5.982,2.384,11.029,1.955,19.027,1.227l3.351-5.246c0,0-5.146,0.33-9.394,0.24 c-0.24-0.01-0.479-0.02-0.738-0.03c-2.594-0.13-6.063-0.768-9.813-3.64c-2.233-1.905-3.71-5.026-3.71-8.547 C246.742,38.713,247.798,36.001,249.535,34.086z"></path>
    <path fill-rule="evenodd" clip-rule="evenodd" fill="#006D38" d="M292.317,31.643c0.558-0.01,1.157-0.01,1.854,0.03 c3.631,0.16,7.021,1.496,8.617,3.122l1.734-0.329l-0.897-6.382c-2.374-1.147-5.983-1.795-10.511-2.005 c-5.006-0.229-9.375,0.489-11.848,1.745c-3.351,1.616-5.365,4.468-5.365,8.158c0,3.521,1.975,6.542,4.867,8.058 c1.256,0.658,2.971,1.216,5.385,1.615l7.459,1.207c2.494,0.389,4.09,1.935,3.75,3.819c-0.239,1.416-1.735,2.205-3.251,2.693 c-1.575,0.309-3.271,0.508-5.065,0.538c-6.563,0.11-12.027-1.944-13.045-4.687l-1.795,0.359l1.177,7.968 c2.912,1.058,6.861,1.905,12.227,2.164c5.365,0.27,9.693-0.697,12.604-1.695c3.811-1.416,6.902-4.627,6.902-8.805 c0-3.81-2.494-7.15-5.904-8.557c-1.316-0.539-2.832-0.967-4.209-1.267l-6.541-1.047c-0.579-0.11-1.078-0.22-1.557-0.329 c-0.299-0.07-0.658-0.189-0.917-0.309c-1.217-0.569-1.995-1.676-1.915-2.882c0.061-0.808,0.479-1.506,1.137-2.015 C288.148,32.182,290.042,31.733,292.317,31.643z"></path>
    <path fill-rule="evenodd" clip-rule="evenodd" fill="#006D38" d="M12.227,44.837c1.476-0.529,3.091-0.868,5.126-1.057 c1.037-0.1,2.613-0.22,2.613-0.22c1.854-0.179,3.211-0.299,3.53-0.379l-0.02,9.474l-0.02,6.104l9.913-0.02 c-0.598-1.347-0.957-2.803-0.957-4.379V35.632c0-3.939-2.533-7.23-6.083-8.417c-2.473-0.898-6.263-1.496-10.531-1.496 c-2.952,0-5.684,0.269-7.898,0.738l-2.912,5.146c1.017-0.169,2.054-0.309,3.131-0.419c4.288-0.449,8.237-0.359,11.189,0.15 c2.273,0.359,3.969,1.735,3.969,3.391c0,1.865-2.134,3.371-4.827,3.46c0,0-2.972,0.269-4.488,0.309 c-3.171,0.11-5.245,0.449-6.482,0.748C3.211,40.12,0,43.919,0,48.457c0,3.431,1.835,6.442,4.587,8.078 c2.333,1.416,5.266,2.384,8.477,2.663c1.775,0.159,3.511,0.1,5.126-0.16l2.772-4.946c-0.618,0.05-1.256,0.09-1.895,0.1 c-2.493,0.05-4.807-0.279-6.682-0.888c-1.875-0.628-3.211-2.293-3.211-4.248C9.175,47.16,10.431,45.515,12.227,44.837z"></path>
    <path fill-rule="evenodd" clip-rule="evenodd" fill="#006D38" d="M60.035,62.837c1.576,0.578,2.633,1.755,2.633,3.121 s-1.057,2.533-2.633,3.112c-1.915,0.807-4.428,1.086-7.28,1.086c-3.53,0-6.283-0.668-8.277-1.854 c-1.755-1.017-3.171-2.653-3.171-4.866c0-1.686,0.738-3.092,1.835-4.169l-1.336-0.737l-8.477,5.345 c-0.04,0.349-0.06,0.688-0.06,1.037c0,3.231,2.015,5.943,4.607,7.778c3.431,2.074,8.816,3.531,15.417,3.531 c4.548,0,7.838-0.459,11.189-1.816c3.909-1.715,6.941-4.886,6.941-8.994c0-3.601-1.895-6.723-4.847-8.357 c-1.516-0.838-3.85-1.336-7.998-2.254c-3.231-0.688-5.325-1.287-5.226-3.062c0.1-1.785,1.895-1.735,5.804-3.002 c2.932-1.077,2.673-0.848,4.289-1.545c3.77-1.616,6.263-4.567,6.263-8.377c0-3.62-2.433-6.762-6.003-8.357l0.279-0.508 c0,0,4.408,1.935,8.397-1.416c1.077-0.917,2.094-1.835,2.792-2.733l-0.837-0.359c-4.707,1.785-9.973,0.848-11.289,0.778 c-1.217-0.08-4.049-0.837-9.035-0.828c-0.519,0-1.057,0.01-1.616,0.03c-6.582,0.229-10.092,2.533-11.289,3.491 c-2.672,1.975-4.388,5.106-4.388,8.656c0,5.086,3.55,9.364,8.317,10.511l6.083-3.7c-3.71-0.519-5.924-3.799-5.924-6.632 c0.02-3.51,3.55-6.362,7.918-6.362c4.388,0,7.938,2.852,7.938,6.362c0,1.656-0.758,3.201-2.054,4.338 c-0.938,0.957-2.732,2.323-5.964,3.64c-2.832,1.157-4.687,2.164-5.864,2.962c-1.855,1.267-3.072,3.181-3.072,5.306 c0,1.984,1.038,3.779,2.713,5.036c1.516,1.117,3.909,2.184,7.679,2.752c1.835,0.289,3.391,0.529,4.587,0.799 C59.437,62.658,59.756,62.748,60.035,62.837z"></path>
    <path fill-rule="evenodd" clip-rule="evenodd" fill="#006D38" d="M91.548,34.286c-2.194,1.057-4.009,3.271-4.727,6.113 c-0.219,0.888-0.319,1.785-0.319,2.643v0.209v10.242v0.918c0.179,1.605,0.259,3.051,0.837,4.388h-3.331H76.19 c0.559-1.286,0.718-2.753,0.818-4.198V30.207l-0.02-0.11c-0.12-1.316-0.279-2.633-0.798-3.799l10.192-0.01v5.705 c1.915-2.763,5.664-5.026,10.232-5.834c1.256-0.22,2.533-0.279,3.729-0.259l0.439,9.194l-1.356,0.708l-0.06,0.02 c-0.22-0.309-0.579-0.788-0.858-1.037c-1.197-1.007-2.772-1.396-4.428-1.157C93.204,33.677,92.346,33.897,91.548,34.286z"></path>
    <path fill-rule="evenodd" clip-rule="evenodd" fill="#006D38" d="M169.415,63.895L169.415,63.895h-0.021l-0.02-0.011 c-0.279,0-0.539,0.06-0.777,0.159c-0.22,0.11-0.439,0.27-0.619,0.479l0,0l-7.14,8.527l-7.081-8.517l0,0 c-0.179-0.21-0.399-0.369-0.638-0.479c-0.239-0.109-0.499-0.169-0.798-0.169c-0.458,0-0.817,0.12-1.057,0.339 c-0.259,0.229-0.379,0.559-0.399,0.998l-0.12,9.703c0,0.239,0.06,0.438,0.16,0.598c0.1,0.16,0.259,0.279,0.479,0.359 c0.14,0.04,0.479,0.061,0.978,0.061c0.319,0,0.559-0.101,0.738-0.26l0,0c0.18-0.18,0.259-0.439,0.279-0.758l0.08-6.791l5.784,7.15 c0.18,0.238,0.419,0.398,0.678,0.518c0.259,0.12,0.539,0.18,0.858,0.18c0.319,0,0.618-0.06,0.877-0.18l0,0 c0.259-0.119,0.479-0.279,0.678-0.518l5.843-7.102l-0.079,6.742c-0.021,0.678,0.319,1.018,0.978,1.018 c0.259,0,0.459-0.021,0.618-0.021s0.299-0.04,0.379-0.04c0.199-0.08,0.358-0.199,0.479-0.359l0,0 c0.1-0.159,0.159-0.358,0.159-0.598l0.12-9.604l0,0v-0.03l0,0c0-0.448-0.12-0.798-0.358-1.037 C170.232,64.014,169.873,63.895,169.415,63.895z"></path>
    <path fill-rule="evenodd" clip-rule="evenodd" fill="#006D38" d="M192.871,63.854c-0.24,0-0.439,0-0.6,0.01 c-0.179,0.011-0.299,0.031-0.379,0.061c-0.219,0.06-0.379,0.17-0.479,0.339l0,0c-0.119,0.149-0.159,0.349-0.159,0.589l-0.1,7.439 c0,0.318-0.1,0.559-0.279,0.758c-0.199,0.199-0.479,0.359-0.878,0.479h-0.02c-0.16,0.04-0.439,0.08-0.798,0.119 c-0.358,0.021-0.817,0.041-1.356,0.041h-2.912c-0.259,0-0.479,0-0.678,0c-0.22-0.021-0.419-0.041-0.578-0.041l0,0 c-0.18-0.02-0.34-0.039-0.499-0.059l0,0c-0.14-0.021-0.279-0.061-0.399-0.08l0,0c-0.398-0.1-0.697-0.26-0.877-0.479 c-0.18-0.18-0.26-0.439-0.26-0.738l0.1-7.439c0-0.229-0.06-0.43-0.159-0.589l0,0c-0.1-0.159-0.279-0.279-0.479-0.339l0,0 c-0.1-0.029-0.22-0.05-0.379-0.061c-0.159-0.01-0.359-0.01-0.599-0.01c-0.318,0-0.559,0.08-0.738,0.26 c-0.18,0.17-0.259,0.419-0.279,0.738l-0.079,7.559c0,0.359,0.02,0.678,0.06,0.957c0.061,0.279,0.14,0.539,0.26,0.759 c0.318,0.618,0.957,1.077,1.914,1.396c0.918,0.279,2.135,0.42,3.631,0.42l0,0h0.219h0.26l0.418,0.02h0.24c0.219,0,0.418,0,0.598,0 h0.08h0.08l0.398,0.02c2.135,0,3.77-0.299,4.867-0.857c1.137-0.599,1.734-1.496,1.734-2.713l0.1-7.559 c0-0.319-0.079-0.559-0.259-0.738C193.449,63.934,193.189,63.854,192.871,63.854z"></path>
    <path fill-rule="evenodd" clip-rule="evenodd" fill="#006D38" d="M214.271,73.688h-6.642c-0.578,0-1.017,0-1.376-0.041 c-0.34,0-0.599-0.039-0.738-0.079l0,0c-0.459-0.08-0.777-0.2-0.977-0.379c-0.18-0.14-0.26-0.339-0.26-0.538l0.1-7.799 c0-0.229-0.061-0.43-0.16-0.589c-0.119-0.169-0.279-0.279-0.479-0.339l0,0c-0.08-0.029-0.219-0.05-0.379-0.061 c-0.159-0.01-0.359-0.01-0.598-0.01c-0.319,0-0.578,0.08-0.738,0.26c-0.18,0.17-0.279,0.419-0.279,0.738l-0.1,7.778 c0,0.698,0.18,1.296,0.539,1.774c0.358,0.479,0.896,0.838,1.615,1.098v0.02c0.438,0.12,0.977,0.24,1.596,0.319 c0.617,0.06,1.316,0.101,2.094,0.101h6.762c0.318,0,0.559-0.101,0.738-0.26l0,0c0.18-0.18,0.259-0.439,0.259-0.758 C215.269,74.106,214.929,73.688,214.271,73.688z"></path>
    <path fill-rule="evenodd" clip-rule="evenodd" fill="#006D38" d="M229.829,64.194c-0.159-0.229-0.419-0.34-0.759-0.34h-11.408 c-0.199,0-0.359,0.03-0.519,0.09v-0.01c-0.14,0.07-0.259,0.17-0.358,0.309l0,0c-0.04,0.09-0.08,0.221-0.12,0.369 c-0.021,0.131-0.021,0.279-0.04,0.469l0,0v0.021l0,0c0,0.319,0.1,0.559,0.26,0.728v0.01c0.18,0.17,0.418,0.26,0.738,0.26l0,0h0.02 h4.367l-0.1,8.826c0,0.239,0.041,0.438,0.141,0.598l0,0c0.1,0.16,0.259,0.279,0.479,0.359l0,0c0.159,0.04,0.479,0.061,0.997,0.061 c0.319,0,0.559-0.101,0.737-0.26l0,0c0.16-0.18,0.26-0.439,0.26-0.758l0.1-8.826h4.428c0.319,0,0.578-0.09,0.738-0.26 c0.18-0.179,0.279-0.428,0.279-0.748c0-0.389-0.08-0.678-0.239-0.887V64.194z"></path>
    <path fill-rule="evenodd" clip-rule="evenodd" fill="#006D38" d="M239.283,63.854c-0.1,0-0.199,0-0.319,0s-0.2,0.01-0.279,0.01l0,0 c-0.079,0.011-0.14,0.021-0.199,0.021c-0.06,0.011-0.12,0.021-0.18,0.03v0.01c-0.22,0.06-0.379,0.17-0.499,0.339 c-0.1,0.159-0.139,0.359-0.159,0.599l-0.12,10.063l0,0c0,0.239,0.061,0.438,0.16,0.598c0.1,0.16,0.26,0.279,0.479,0.359l0,0h0.02 c0.061,0,0.12,0,0.18,0.02l0,0c0.08,0.021,0.14,0.021,0.22,0.021l0,0c0.06,0,0.159,0,0.259,0l0,0c0.1,0.021,0.22,0.021,0.3,0.021 c0.319,0,0.558-0.101,0.737-0.26c0.18-0.18,0.26-0.439,0.279-0.758l0.12-10.072c0-0.319-0.08-0.559-0.259-0.738 C239.861,63.934,239.601,63.854,239.283,63.854z"></path>
    <path fill-rule="evenodd" clip-rule="evenodd" fill="#006D38" d="M267.027,63.895L267.027,63.895h-0.021v-0.011 c-0.3,0-0.559,0.06-0.778,0.159c-0.238,0.11-0.459,0.27-0.638,0.479l0,0l-7.141,8.527l-7.081-8.517l0,0 c-0.179-0.21-0.398-0.369-0.638-0.479c-0.239-0.109-0.499-0.169-0.798-0.169c-0.459,0-0.818,0.12-1.057,0.339 c-0.26,0.229-0.379,0.559-0.379,0.998l-0.141,9.703c0,0.239,0.061,0.438,0.16,0.598c0.1,0.16,0.26,0.279,0.479,0.359 c0.14,0.04,0.479,0.061,0.978,0.061c0.319,0,0.559-0.101,0.737-0.26l0,0c0.18-0.18,0.279-0.439,0.279-0.758l0.08-6.791l5.784,7.15 c0.2,0.238,0.419,0.398,0.679,0.518c0.259,0.12,0.538,0.18,0.857,0.18c0.318,0,0.618-0.06,0.877-0.18l0,0 c0.26-0.119,0.479-0.279,0.679-0.518l5.844-7.102l-0.079,6.742c-0.021,0.678,0.318,1.018,0.977,1.018 c0.26,0,0.459-0.021,0.619-0.021c0.158,0,0.299-0.04,0.379-0.04c0.199-0.08,0.358-0.199,0.479-0.359l0,0 c0.1-0.159,0.159-0.358,0.159-0.598l0.12-9.604l0,0v-0.03l0,0c0-0.448-0.12-0.798-0.359-1.037 C267.843,64.014,267.485,63.895,267.027,63.895z"></path>
    <path fill-rule="evenodd" clip-rule="evenodd" fill="#006D38" d="M278.295,63.854c-0.101,0-0.2,0-0.319,0s-0.199,0.01-0.279,0.01 l0,0c-0.08,0.011-0.14,0.021-0.199,0.021c-0.061,0.011-0.119,0.021-0.18,0.03l-0.02,0.01c-0.199,0.06-0.359,0.17-0.479,0.339l0,0 c-0.1,0.159-0.141,0.359-0.16,0.599l-0.119,10.063l0,0c0,0.239,0.06,0.438,0.159,0.598c0.1,0.16,0.259,0.279,0.479,0.359l0,0h0.021 c0.06,0,0.119,0,0.18,0.02l0,0c0.079,0.021,0.139,0.021,0.199,0.021h0.02c0.061,0,0.16,0,0.26,0l0,0 c0.1,0.021,0.219,0.021,0.299,0.021c0.318,0,0.559-0.101,0.738-0.26c0.18-0.18,0.259-0.439,0.279-0.758l0.119-10.072 c0-0.319-0.08-0.559-0.26-0.738C278.874,63.934,278.615,63.854,278.295,63.854z"></path>
    <path fill-rule="evenodd" clip-rule="evenodd" fill="#006D38" d="M301.591,74.745v-0.02l0.339,0.279c0-0.16-0.04-0.3-0.14-0.439 l0,0c-0.08-0.14-0.18-0.279-0.339-0.398l0,0l-5.106-4.379l5.027-4.178c0.158-0.12,0.259-0.26,0.338-0.389 c0.1-0.15,0.141-0.31,0.141-0.469c0-0.3-0.1-0.529-0.32-0.688l0,0c-0.179-0.14-0.458-0.21-0.797-0.21 c-0.299,0-0.559,0.01-0.758,0.041c-0.22,0.039-0.399,0.1-0.499,0.189l0,0l-4.986,4.148l-4.946-4.159 c-0.08-0.069-0.18-0.13-0.299-0.169c-0.1-0.041-0.22-0.051-0.34-0.051c-0.259,0-0.479,0-0.638,0.01l-0.359,0.031 c-0.239,0.039-0.419,0.139-0.558,0.279c-0.141,0.148-0.2,0.338-0.2,0.578c0,0.159,0.04,0.318,0.12,0.469l0,0 c0.08,0.139,0.18,0.269,0.318,0.398l0,0l4.967,4.168l-5.246,4.358v0.021c-0.159,0.119-0.259,0.238-0.339,0.379l0,0 c-0.1,0.139-0.14,0.299-0.14,0.459c0,0.318,0.12,0.559,0.398,0.717c0.221,0.16,0.559,0.221,0.979,0.221 c0.219,0,0.418-0.021,0.578-0.061c0.18-0.04,0.339-0.1,0.438-0.199h0.021l5.205-4.309l5.026,4.309l0,0 c0.12,0.1,0.259,0.18,0.419,0.239l0,0c0.16,0.04,0.339,0.06,0.539,0.06c0.119,0,0.259-0.02,0.398-0.06 c0.14,0,0.299-0.06,0.459-0.12h0.02c0.199-0.08,0.339-0.199,0.439-0.318l0,0c0.119-0.141,0.179-0.3,0.179-0.479L301.591,74.745z"></path>
    <polygon fill-rule="evenodd" clip-rule="evenodd" fill="#F15A22" points="329.973,51.109 329.973,50.811 329.973,26.427 329.973,25.59 329.236,25.171 286.393,0.429 285.656,0 284.937,0.429 256.196,16.674 262.678,16.664 285.356,4.188 323.412,28.402 323.412,50.811 323.412,51.109 323.412,73.528 285.356,97.741 262.678,85.256 256.196,85.256 284.937,101.491 285.656,101.93 286.393,101.491 329.236,76.758 329.973,76.321 329.973,75.483 "></polygon>
</svg>