<?xml version="1.0" encoding="UTF-8"?>
<svg version="1.1" xmlns="http://www.w3.org/2000/svg" width="1000" height="774">
<path d="M0 0 C11.15700364 7.15833354 17.78673694 17.29917661 20.6875 30.1875 C21.32368055 34.86193599 21.69009936 39.54817677 22.0625 44.25 C28.67605131 118.64643787 66.56414194 195.8430825 123.734375 244.8515625 C126.354955 247.00576809 129.01142636 249.10289241 131.6875 251.1875 C132.46996094 251.8371875 133.25242187 252.486875 134.05859375 253.15625 C164.88338098 278.66641874 201.11759132 293.01528013 240.6875 297.1875 C240.27757812 296.14851563 239.86765625 295.10953125 239.4453125 294.0390625 C233.130143 277.80841377 229.60397503 262.27469166 235.6875 245.1875 C240.21113653 235.09870238 246.85392047 227.61629628 257.0703125 223.14453125 C269.49475021 218.88986046 280.96182719 221.30815916 292.68359375 226.51953125 C309.88434347 235.54250089 321.39760385 252.12006675 329.6875 269.1875 C330.5125 268.69121094 331.3375 268.19492187 332.1875 267.68359375 C351.62217435 256.17276917 372.56933002 247.29043149 395.62890625 251.87890625 C406.86767054 254.77649488 416.74020799 260.62557698 423.1953125 270.4921875 C428.57074239 279.86079389 429.36125534 290.28982667 426.81640625 300.77734375 C424.18235089 308.04042755 420.52229159 314.18805214 415.6875 320.1875 C415.03007813 321.00863281 414.37265625 321.82976562 413.6953125 322.67578125 C409.52309193 327.58922049 405.0144957 331.74877334 399.9375 335.6875 C399.39464355 336.10902344 398.85178711 336.53054688 398.29248047 336.96484375 C395.2256043 339.26382312 392.31718878 340.95071716 388.6875 342.1875 C388.6875 342.8475 388.6875 343.5075 388.6875 344.1875 C389.38359375 344.43371094 390.0796875 344.67992187 390.796875 344.93359375 C394.13274897 346.38064178 396.91871343 348.22197632 399.9375 350.25 C445.53010358 379.99322881 502.79454007 388.84636065 555.96386719 378.55322266 C589.45236112 371.50537608 620.8613184 358.80624635 647.6875 337.1875 C648.6053125 336.46046875 649.523125 335.7334375 650.46875 334.984375 C655.19014688 331.19134267 659.64525634 327.27081222 664 323.0625 C672.23243791 315.45876412 682.76830665 309.7113715 694.1875 309.91796875 C700.78086503 310.62881592 706.09156528 313.08911087 710.625 317.9375 C716.49588068 325.46995069 717.72177234 332.71898302 716.6875 342.1875 C714.77161359 351.60727487 708.02491491 358.37284016 701.6875 365.1875 C701.19072754 365.72810059 700.69395508 366.26870117 700.18212891 366.82568359 C682.56003415 385.81870306 660.14678271 400.33602231 636.74365234 411.22949219 C635.32872986 411.88873653 633.91778455 412.55656294 632.51025391 413.23144531 C599.74497253 428.93455674 564.74928022 438.91535054 528.6875 443.1875 C527.40359375 443.34001221 527.40359375 443.34001221 526.09375 443.49560547 C517.84821473 444.35990765 509.59434514 444.43086183 501.3125 444.4375 C500.1668306 444.43851212 500.1668306 444.43851212 498.99801636 444.43954468 C431.28018134 444.3455202 364.47357432 423.93789675 310.3515625 383.01953125 C309.72902588 382.54990967 309.10648926 382.08028809 308.46508789 381.59643555 C306.75860354 380.24385744 305.19284014 378.80057035 303.59765625 377.3203125 C300.06973238 374.73474682 298.77912866 374.72341666 294.5 375.25 C293.18902344 375.3840625 291.87804687 375.518125 290.52734375 375.65625 C289.39981689 375.78386719 289.39981689 375.78386719 288.24951172 375.9140625 C206.13713616 384.6777237 120.62511255 366.77829199 55.31152344 314.50732422 C40.9162782 302.80848241 26.65125374 290.40638157 14.546875 276.3203125 C13.28912954 274.87760448 12.0068742 273.45596124 10.703125 272.0546875 C3.42948548 264.22357926 -2.9535343 255.76307378 -9.3125 247.1875 C-9.81152832 246.5186377 -10.31055664 245.84977539 -10.82470703 245.16064453 C-52.72896736 188.65784216 -86.86296597 108.67373864 -78.0078125 36.71142578 C-75.65329779 22.74951391 -69.51703038 11.00713034 -58.3125 2.1875 C-40.03347505 -9.36814538 -18.94162631 -10.56087685 0 0 Z " fill="#245AA6" transform="translate(138.3125,6.8125)"/>
<path d="M0 0 C13.90478347 10.24931209 23.62835007 23.89499464 31.10546875 39.2890625 C31.93046875 38.79277344 32.75546875 38.29648437 33.60546875 37.78515625 C53.0401431 26.27433167 73.98729877 17.39199399 97.046875 21.98046875 C108.28563929 24.87805738 118.15817674 30.72713948 124.61328125 40.59375 C129.98871114 49.96235639 130.77922409 60.39138917 128.234375 70.87890625 C125.60031964 78.14199005 121.94026034 84.28961464 117.10546875 90.2890625 C116.44804688 91.11019531 115.790625 91.93132812 115.11328125 92.77734375 C110.94106068 97.69078299 106.43246445 101.85033584 101.35546875 105.7890625 C100.8126123 106.21058594 100.26975586 106.63210938 99.71044922 107.06640625 C96.64357305 109.36538562 93.73515753 111.05227966 90.10546875 112.2890625 C90.10546875 112.9490625 90.10546875 113.6090625 90.10546875 114.2890625 C90.8015625 114.53527344 91.49765625 114.78148437 92.21484375 115.03515625 C95.55071772 116.48220428 98.33668218 118.32353882 101.35546875 120.3515625 C146.94807233 150.09479131 204.21250882 158.94792315 257.38183594 148.65478516 C290.87032987 141.60693858 322.27928715 128.90780885 349.10546875 107.2890625 C350.02328125 106.56203125 350.94109375 105.835 351.88671875 105.0859375 C356.60811563 101.29290517 361.06322509 97.37237472 365.41796875 93.1640625 C373.65040666 85.56032662 384.1862754 79.812934 395.60546875 80.01953125 C402.19883378 80.73037842 407.50953403 83.19067337 412.04296875 88.0390625 C417.91384943 95.57151319 419.13974109 102.82054552 418.10546875 112.2890625 C416.18958234 121.70883737 409.44288366 128.47440266 403.10546875 135.2890625 C402.60869629 135.82966309 402.11192383 136.37026367 401.60009766 136.92724609 C383.9780029 155.92026556 361.56475146 170.43758481 338.16162109 181.33105469 C336.74669861 181.99029903 335.3357533 182.65812544 333.92822266 183.33300781 C301.16294128 199.03611924 266.16724897 209.01691304 230.10546875 213.2890625 C229.24953125 213.3907373 228.39359375 213.49241211 227.51171875 213.59716797 C219.26618348 214.46147015 211.01231389 214.53242433 202.73046875 214.5390625 C201.58479935 214.54007462 201.58479935 214.54007462 200.41598511 214.54110718 C131.81536067 214.44585697 64.58976497 193.50384992 10.04492188 151.74902344 C8.7414208 150.76778773 7.42182948 149.80760309 6.08789062 148.86816406 C1.72238001 145.7568449 -1.69410013 142.43803737 -5.13476562 138.33300781 C-7.4890337 135.59855549 -10.05153091 133.12079134 -12.63964844 130.60986328 C-30.12385337 113.64090161 -43.44611977 93.7307275 -54.89453125 72.2890625 C-55.47074219 71.23074219 -56.04695313 70.17242187 -56.640625 69.08203125 C-65.00298102 53.17061569 -68.87241587 35.66296555 -63.875 18.04296875 C-60.13657086 7.54260004 -53.72155808 -0.38927281 -43.89453125 -5.7109375 C-29.01446474 -12.22401579 -13.35150099 -8.28957129 0 0 Z " fill="#5AA22A" transform="translate(436.89453125,236.7109375)"/>
<path d="M0 0 C12.65844846 9.99833972 21.95703242 22.88924231 24.65625 39.05859375 C27.77655909 65.75851134 22.91028234 89.59601293 6.04858398 111.18041992 C-4.65185308 124.39601127 -16.52972472 136.31419619 -34 139 C-58.68646689 141.01708417 -81.75172259 131.06730128 -100.625 115.3125 C-114.33112726 102.56261418 -122.63900885 85.63000957 -123.40209961 66.89624023 C-123.84557543 40.00937192 -110.7295576 16.65965318 -92.75390625 -2.37890625 C-67.5332378 -26.7665985 -25.57937843 -19.16720362 0 0 Z " fill="#245AA6" transform="translate(424,27)"/>
<path d="M0 0 C1.04138632 0.89324857 2.07199951 1.80063851 3.0625 2.75 C3.3925 0.44 3.7225 -1.87 4.0625 -4.25 C15.9425 -4.25 27.8225 -4.25 40.0625 -4.25 C40.0625 41.29 40.0625 86.83 40.0625 133.75 C28.5125 133.75 16.9625 133.75 5.0625 133.75 C4.5675 127.81 4.5675 127.81 4.0625 121.75 C3.0725 122.636875 2.0825 123.52375 1.0625 124.4375 C-12.37608758 135.87918902 -26.79942375 137.68197998 -43.9375 136.75 C-61.70422803 134.88765954 -76.43193365 125.94216928 -87.75 112.375 C-100.18485455 95.41572654 -102.14601472 73.70760957 -99.4296875 53.40234375 C-95.97536221 34.20503021 -87.25953209 16.15257753 -71.23535156 4.51367188 C-52.43658254 -8.04717888 -19.68807929 -14.49977218 0 0 Z " fill="#156C28" transform="translate(258.9375,535.25)"/>
<path d="M0 0 C0.99 0.99 0.99 0.99 2 2 C2.33 -0.31 2.66 -2.62 3 -5 C14.88 -5 26.76 -5 39 -5 C39 40.54 39 86.08 39 133 C27.45 133 15.9 133 4 133 C3.505 127.06 3.505 127.06 3 121 C1.9275 122.03125 0.855 123.0625 -0.25 124.125 C-13.36726819 135.55046505 -28.35955452 137.05342669 -45 136 C-61.54363956 134.2411499 -75.70713879 126.36511443 -86.7265625 114.07421875 C-100.17051776 97.42439723 -102.71717188 76.32418312 -100.78173828 55.67089844 C-98.19045172 35.64193832 -89.38477323 18.27974611 -73.8125 5.3125 C-54.01219832 -9.22834655 -21.17176894 -15.49749081 0 0 Z " fill="#166C29" transform="translate(817,536)"/>
<path d="M0 0 C9.59004066 7.8161603 14.1765335 17.61940359 16.02734375 29.65234375 C16.2743162 33.06485404 16.28203471 36.45524878 16.25439453 39.87548828 C16.25468658 40.84255203 16.25497864 41.80961578 16.25527954 42.8059845 C16.25389903 45.9658034 16.23839863 49.12537913 16.22265625 52.28515625 C16.21892157 54.49046703 16.21607675 56.69577949 16.21408081 58.90109253 C16.20648021 64.67798522 16.18686268 70.4547758 16.16467285 76.23162842 C16.14413713 82.13747781 16.13506263 88.04334387 16.125 93.94921875 C16.10361319 105.51697895 16.06846044 117.08463684 16.02734375 128.65234375 C2.82734375 128.65234375 -10.37265625 128.65234375 -23.97265625 128.65234375 C-24.01003906 122.05492187 -24.04742187 115.4575 -24.0859375 108.66015625 C-24.11623226 104.46742236 -24.14739005 100.27473014 -24.18164062 96.08203125 C-24.23585986 89.4349178 -24.28697409 82.78788678 -24.3190918 76.140625 C-24.34520174 70.77828036 -24.38565845 65.41621429 -24.43584251 60.05404282 C-24.4524593 58.01368565 -24.46400575 55.97328036 -24.47027016 53.93286514 C-24.47996785 51.06318572 -24.5080943 48.19421072 -24.5402832 45.32470703 C-24.53884811 44.49104111 -24.53741302 43.65737518 -24.53593445 42.79844666 C-24.64477021 35.8865892 -25.45122084 28.37821987 -30.28515625 23.15234375 C-36.14573318 19.88132407 -41.34514512 19.31260304 -47.91015625 19.33984375 C-48.68294922 19.32373047 -49.45574219 19.30761719 -50.25195312 19.29101562 C-55.59845562 19.28649618 -59.18453208 20.28524857 -63.97265625 22.65234375 C-64.96265625 22.98234375 -65.95265625 23.31234375 -66.97265625 23.65234375 C-69.98901955 29.91313881 -70.41653085 36.67698414 -70.4050293 43.50830078 C-70.41522095 44.43635025 -70.4254126 45.36439972 -70.43591309 46.3205719 C-70.4658102 49.35049661 -70.47527318 52.38010401 -70.484375 55.41015625 C-70.50123897 57.52579785 -70.5193915 59.64142953 -70.53877258 61.75704956 C-70.58609205 67.29712831 -70.616018 72.83716684 -70.64221191 78.37738037 C-70.67210883 84.04203225 -70.71860765 89.70654582 -70.76367188 95.37109375 C-70.84949959 106.46478695 -70.91539957 117.55846626 -70.97265625 128.65234375 C-84.17265625 128.65234375 -97.37265625 128.65234375 -110.97265625 128.65234375 C-110.97265625 83.11234375 -110.97265625 37.57234375 -110.97265625 -9.34765625 C-99.09265625 -9.34765625 -87.21265625 -9.34765625 -74.97265625 -9.34765625 C-74.47765625 -5.38765625 -74.47765625 -5.38765625 -73.97265625 -1.34765625 C-73.45058594 -1.734375 -72.92851563 -2.12109375 -72.390625 -2.51953125 C-51.03569209 -17.62880077 -20.94028253 -14.88161127 0 0 Z " fill="#196E2A" transform="translate(110.97265625,540.34765625)"/>
<path d="M0 0 C0.66354492 0.20898926 1.32708984 0.41797852 2.01074219 0.63330078 C14.29983249 4.61339189 23.49268673 10.90728779 29.8203125 22.3828125 C37.38579167 39.1671537 36.66397261 59.07423782 30.8984375 76.2890625 C29.70827776 79.26062262 28.41055925 82.12693455 27 85 C26.53464844 85.95777344 26.06929687 86.91554688 25.58984375 87.90234375 C18.75041345 101.19819626 9.12758937 109.51744946 -5.19921875 114.21875 C-24.63475307 119.64009848 -42.39235367 115.83262253 -59.79296875 106.02734375 C-65.51084009 102.41275761 -70.76408941 98.27954847 -76 94 C-77.04800781 93.20335937 -78.09601562 92.40671875 -79.17578125 91.5859375 C-86.61385178 84.77542202 -89.48933653 73.57479213 -90.25 63.78125 C-90.88064786 45.3348 -86.40642201 27.28358416 -74.25 13.0625 C-54.9849003 -6.72642417 -25.14321956 -8.22353422 0 0 Z " fill="#5AA22A" transform="translate(684,182)"/>
<path d="M0 0 C13.2 0 26.4 0 40 0 C40.01458252 2.8359375 40.02916504 5.671875 40.04418945 8.59375 C40.09459072 17.97757179 40.16119572 27.36122861 40.23571491 36.74488831 C40.28038789 42.43261287 40.31965096 48.12026631 40.34643555 53.80810547 C40.37249891 59.30011551 40.41292322 64.7918514 40.46318626 70.28369141 C40.47983439 72.3759418 40.49136143 74.46823959 40.49761391 76.56054688 C40.50727719 79.49768621 40.53536363 82.43412743 40.56762695 85.37109375 C40.56619186 86.2306517 40.56475677 87.09020966 40.5632782 87.97581482 C40.65083607 93.63469074 41.77045488 97.79349623 44 103 C44.33 103.99 44.66 104.98 45 106 C52.55148642 110.16102313 62.66709698 109.86641805 71 109 C75.46391138 107.5667765 79.09255966 105.76890414 82 102 C84.22016274 96.79827436 84.30515266 92.06057773 84.31884766 86.50634766 C84.32889328 85.56912872 84.3389389 84.63190979 84.34928894 83.66629028 C84.38006969 80.58222034 84.39714198 77.49823701 84.4140625 74.4140625 C84.43277824 72.27028664 84.45235196 70.12651811 84.4727478 67.98275757 C84.52403198 62.35056893 84.56367769 56.71835641 84.60089111 51.08605957 C84.64095396 45.3346569 84.69203593 39.58335323 84.7421875 33.83203125 C84.83890292 22.55475019 84.92230305 11.27742814 85 0 C98.2 0 111.4 0 125 0 C125.06796107 12.57035821 125.12292284 25.14059303 125.15543652 37.7110939 C125.17104679 43.54900222 125.19219996 49.38677756 125.22631836 55.22460938 C125.25907765 60.86563156 125.27688785 66.50652639 125.28463173 72.14763641 C125.2901456 74.29245761 125.30091234 76.43727237 125.31719017 78.58203888 C125.44396999 95.98964018 124.8856759 111.85997233 112.25 125.3125 C96.09325876 140.27584558 74.74269699 141.84764141 53.76904297 141.15234375 C39.03445111 140.34169437 24.17313216 135.98810299 13 126 C3.14403944 114.89925549 -0.17135116 103.77316524 -0.11352539 89.23095703 C-0.11367142 88.26447739 -0.11381744 87.29799774 -0.1139679 86.30223083 C-0.11327351 83.1207349 -0.10550333 79.93929816 -0.09765625 76.7578125 C-0.09579039 74.54678377 -0.09436728 72.33575463 -0.09336853 70.12472534 C-0.08955662 64.31492973 -0.07973765 58.50515924 -0.06866455 52.69537354 C-0.05842192 46.76306498 -0.0538648 40.83075235 -0.04882812 34.8984375 C-0.03811419 23.2656122 -0.02052812 11.63281213 0 0 Z " fill="#166C28" transform="translate(442,531)"/>
<path d="M0 0 C13.90478347 10.24931209 23.62835007 23.89499464 31.10546875 39.2890625 C31.93046875 38.79277344 32.75546875 38.29648437 33.60546875 37.78515625 C53.0401431 26.27433167 73.98729877 17.39199399 97.046875 21.98046875 C108.28563929 24.87805738 118.15817674 30.72713948 124.61328125 40.59375 C129.98871114 49.96235639 130.77922409 60.39138917 128.234375 70.87890625 C125.60031964 78.14199005 121.94026034 84.28961464 117.10546875 90.2890625 C116.44804688 91.11019531 115.790625 91.93132812 115.11328125 92.77734375 C107.92803561 101.23908907 99.20427999 108.58032143 89.10546875 113.2890625 C81.63953051 107.76502234 74.85879383 101.64345698 68.10546875 95.2890625 C67.46738281 94.70511719 66.82929688 94.12117188 66.171875 93.51953125 C51.15165212 79.29174219 40.36335751 60.55885747 31.10546875 42.2890625 C27.03865038 43.77545066 23.50498617 45.75633116 19.79296875 47.9765625 C12.18671736 52.42768112 4.26730335 55.98551301 -3.89453125 59.2890625 C-4.808396 59.67143066 -4.808396 59.67143066 -5.74072266 60.06152344 C-11.51627586 62.37529982 -17.44078164 63.64830744 -23.51953125 64.9140625 C-24.53015625 65.130625 -25.54078125 65.3471875 -26.58203125 65.5703125 C-29.34994826 66.1587673 -32.12074282 66.72902814 -34.89453125 67.2890625 C-35.94640625 67.50175781 -36.99828125 67.71445312 -38.08203125 67.93359375 C-41.82465974 68.40662041 -45.50203278 68.39584594 -49.26953125 68.3515625 C-50.00558594 68.34705078 -50.74164063 68.34253906 -51.5 68.33789062 C-53.29821283 68.32621392 -55.09638322 68.30828261 -56.89453125 68.2890625 C-65.36136324 52.86733281 -68.73578661 35.18123516 -63.875 18.04296875 C-60.13657086 7.54260004 -53.72155808 -0.38927281 -43.89453125 -5.7109375 C-29.01446474 -12.22401579 -13.35150099 -8.28957129 0 0 Z " fill="#E55B1F" transform="translate(436.89453125,236.7109375)"/>
<path d="M0 0 C13.2 0 26.4 0 40 0 C40 13.53 40 27.06 40 41 C51.22 41 62.44 41 74 41 C74 51.23 74 61.46 74 72 C62.78 72 51.56 72 40 72 C40.04674123 79.27059796 40.09732172 86.53948028 40.18379211 93.80944061 C40.22300058 97.19565265 40.25546116 100.58160715 40.27099609 103.96801758 C40.29250464 107.86321532 40.33919968 111.75743984 40.390625 115.65234375 C40.39185364 116.8526976 40.39308228 118.05305145 40.39434814 119.28977966 C40.53575811 127.46877165 41.48904759 134.39665411 47.375 140.4375 C54.86860424 144.89797871 62.54915256 144.95380902 70.875 142.9375 C71.57367188 142.74027344 72.27234375 142.54304687 72.9921875 142.33984375 C75 142 75 142 79 143 C78.67 153.89 78.34 164.78 78 176 C56.94155243 179.94845892 39.92299202 180.71788834 21.3125 169.3125 C8.20039476 159.98410571 2.69421058 147.44893436 0 132 C-0.37080167 127.46104621 -0.38191937 122.9590192 -0.34057617 118.40698242 C-0.34101425 117.11761276 -0.34145233 115.8282431 -0.34190369 114.49980164 C-0.3427545 111.00881712 -0.32527958 107.51815016 -0.30418181 104.02723861 C-0.28526009 100.36243974 -0.2836525 96.69763132 -0.28010559 93.03279114 C-0.27083016 86.11287485 -0.2462783 79.19310299 -0.21605712 72.27324992 C-0.18237176 64.38678282 -0.16599179 56.50030834 -0.15097082 48.61378706 C-0.11972394 32.40909382 -0.06476924 16.2045992 0 0 Z " fill="#176C29" transform="translate(332,490)"/>
<path d="M0 0 C13.2 0 26.4 0 40 0 C40 66.33 40 132.66 40 201 C26.8 201 13.6 201 0 201 C0 134.67 0 68.34 0 0 Z " fill="#196D2A" transform="translate(893,468)"/>
<path d="M0 0 C3 1 3 1 4.06811523 2.58789062 C4.5584021 3.61172852 4.5584021 3.61172852 5.05859375 4.65625 C5.62779541 5.80637573 5.62779541 5.80637573 6.20849609 6.97973633 C6.61406738 7.81142334 7.01963867 8.64311035 7.4375 9.5 C19.83598186 33.90792855 38.00958065 54.8001613 60 71 C56.27783305 75.56571754 51.28755975 77.52434559 46.0625 79.9375 C45.11608643 80.37989014 44.16967285 80.82228027 43.19458008 81.27807617 C27.75682169 88.42540628 11.89144836 93.67482708 -4.625 97.6875 C-5.44677734 97.88988281 -6.26855469 98.09226562 -7.11523438 98.30078125 C-8.79695205 98.6971012 -10.48564944 99.06472508 -12.17944336 99.40576172 C-14.25596821 99.84324648 -16.31318867 100.37492363 -18.35375977 100.95751953 C-23.62806382 102.20537529 -27.25611909 103.00033699 -32.09375 100.2253418 C-35.20939888 97.48220482 -37.94807319 94.60830035 -40.6875 91.5 C-41.69211469 90.42017744 -42.69970749 89.34311818 -43.71020508 88.26879883 C-46.53795906 85.23280106 -49.27677711 82.13011068 -52 79 C-52.63164062 78.27989746 -53.26328125 77.55979492 -53.9140625 76.81787109 C-57.18030737 73.03373334 -60.15323487 69.10675349 -63 65 C-63.47937012 64.31663574 -63.95874023 63.63327148 -64.45263672 62.92919922 C-70.06442296 54.87812342 -75.34693111 46.66358198 -80.1875 38.125 C-80.56213379 37.46516113 -80.93676758 36.80532227 -81.32275391 36.12548828 C-82.99269684 33.10537873 -84.25648257 30.36250846 -85 27 C-83.12634766 26.87044922 -83.12634766 26.87044922 -81.21484375 26.73828125 C-53.48045973 24.59346733 -25.61937598 18.11241032 -2.6328125 1.6328125 C-1.76398438 1.09398437 -0.89515625 0.55515625 0 0 Z " fill="#7D0E1A" transform="translate(466,278)"/>
<path d="M0 0 C1.78857422 -0.00833862 1.78857422 -0.00833862 3.61328125 -0.0168457 C10.79656471 0.04177903 16.41293969 0.85758794 23.6875 2.3125 C23.6875 12.5425 23.6875 22.7725 23.6875 33.3125 C19.3975 32.9825 15.1075 32.6525 10.6875 32.3125 C-0.71458858 31.75630056 -11.81693149 32.07408322 -21.58984375 38.65625 C-26.78092212 43.64721878 -29.1765516 51.06122372 -29.47071838 58.09637451 C-29.4913189 59.64850228 -29.50664294 61.20070547 -29.51782227 62.75292969 C-29.52772186 63.60207443 -29.53762146 64.45121918 -29.54782104 65.32609558 C-29.57937247 68.12882716 -29.60416835 70.93157568 -29.62890625 73.734375 C-29.64948126 75.67922401 -29.67047788 77.6240686 -29.69187927 79.56890869 C-29.74704338 84.68492045 -29.79647763 89.80097219 -29.84472656 94.91705322 C-29.9038207 101.05700549 -29.97001753 107.19688479 -30.03502655 113.33677673 C-30.13296485 122.66197321 -30.22186966 131.98721673 -30.3125 141.3125 C-43.5125 141.3125 -56.7125 141.3125 -70.3125 141.3125 C-70.43282643 120.20189669 -70.43282643 120.20189669 -70.45898438 111.11914062 C-70.47683377 104.95084778 -70.49782022 98.78269006 -70.53881836 92.61450195 C-70.57170515 87.63481744 -70.58941407 82.65527808 -70.59713173 77.67549324 C-70.60262312 75.78713767 -70.61334437 73.89878895 -70.62969017 72.01049614 C-70.79973271 51.52973589 -68.68745718 32.94822446 -53.6875 17.4921875 C-38.32265849 3.39090203 -20.2078356 0.08008563 0 0 Z " fill="#176D29" transform="translate(673.3125,527.6875)"/>
<path d="M0 0 C12.59700632 9.28534051 24.17036328 22.67957211 30.10546875 37.2890625 C30.13671875 39.92578125 30.13671875 39.92578125 29.10546875 42.2890625 C26.76171875 44.24609375 26.76171875 44.24609375 23.60546875 46.1015625 C23.03521973 46.43704102 22.4649707 46.77251953 21.87744141 47.11816406 C7.53974629 55.35821873 -7.48948047 61.65180423 -23.70703125 64.9765625 C-24.70412109 65.18861328 -25.70121094 65.40066406 -26.72851562 65.61914062 C-29.44743592 66.19259221 -32.16941311 66.74594646 -34.89453125 67.2890625 C-35.94253906 67.50046875 -36.99054688 67.711875 -38.0703125 67.9296875 C-41.81730247 68.4064829 -45.49731654 68.39590137 -49.26953125 68.3515625 C-50.00558594 68.34705078 -50.74164063 68.34253906 -51.5 68.33789062 C-53.29821283 68.32621392 -55.09638322 68.30828261 -56.89453125 68.2890625 C-65.36136324 52.86733281 -68.73578661 35.18123516 -63.875 18.04296875 C-60.13657086 7.54260004 -53.72155808 -0.38927281 -43.89453125 -5.7109375 C-29.01446474 -12.22401579 -13.35150099 -8.28957129 0 0 Z " fill="#F3C01C" transform="translate(436.89453125,236.7109375)"/>
<path d="M0 0 C9.89535112 10.18639086 11.30373695 21.82204437 11.3125 35.5625 C11.32474609 36.56539062 11.33699219 37.56828125 11.34960938 38.6015625 C11.37047877 49.23104225 9.33512793 59.31119159 2.078125 67.49609375 C-6.17238232 75.24872563 -12.88879435 76.83413756 -24.171875 76.609375 C-29.53831169 75.99800879 -33.42965133 74.16545202 -37.875 71.1875 C-38.803125 70.589375 -39.73125 69.99125 -40.6875 69.375 C-49.90142003 60.16107997 -52.24778471 47.65021171 -52.3125 35.0625 C-52.14069813 22.40603369 -50.13850278 10.31869854 -40.73046875 1.08203125 C-28.73648126 -8.82782213 -12.89181084 -8.12744597 0 0 Z " fill="#FDFDFD" transform="translate(249.875,564.8125)"/>
<path d="M0 0 C7.79633215 4.22591886 12.0082916 10.82292234 15.140625 18.96484375 C16.66736038 24.70912736 16.36875906 30.72730753 16.375 36.625 C16.39949219 37.81996094 16.42398438 39.01492188 16.44921875 40.24609375 C16.48978642 52.72741425 14.21976287 62.94428631 5.3125 71.96875 C-2.18150821 78.55132478 -9.39292808 79.55816016 -19.1640625 79.33984375 C-27.17792146 78.62985828 -33.1590213 74.72698744 -38.53515625 68.8828125 C-45.80752647 59.53539264 -46.34381647 49.04924691 -46.3125 37.625 C-46.32861328 36.45710937 -46.34472656 35.28921875 -46.36132812 34.0859375 C-46.36750048 23.07445646 -44.46951735 13.43748936 -37 5 C-26.09672129 -3.98030186 -13.06907855 -5.89565636 0 0 Z " fill="#FDFDFD" transform="translate(802,562)"/>
<path d="M0 0 C3.95793295 -0.14700894 7.91515092 -0.2346378 11.875 -0.3125 C13.53789063 -0.3753418 13.53789063 -0.3753418 15.234375 -0.43945312 C23.70260861 -0.56398597 30.48910481 0.92406341 36.91162109 6.72729492 C43.0792824 13.1347549 44.56841744 20.78125049 44.5 29.375 C44.49427979 30.20990967 44.48855957 31.04481934 44.48266602 31.9050293 C44.26081786 39.56962164 42.55761589 45.06211638 37.35546875 50.8203125 C29.00852114 58.62084594 19.3517611 59.06439285 8.5625 59.125 C7.8394165 59.12975342 7.11633301 59.13450684 6.37133789 59.1394043 C1.12256732 59.12256732 1.12256732 59.12256732 0 58 C-0.09376053 56.18944975 -0.1174411 54.37522799 -0.11352539 52.56225586 C-0.11344986 51.40112778 -0.11337433 50.23999969 -0.11329651 49.04368591 C-0.10813522 47.780168 -0.10297394 46.51665009 -0.09765625 45.21484375 C-0.0962413 43.92888809 -0.09482635 42.64293243 -0.09336853 41.31800842 C-0.08954418 37.89356557 -0.07971462 34.46916491 -0.06866455 31.04473877 C-0.05844864 27.55261811 -0.05387053 24.06049066 -0.04882812 20.56835938 C-0.03809227 13.71222222 -0.02101684 6.85611313 0 0 Z " fill="#101010" transform="translate(532,715)"/>
<path d="M0 0 C4.62 0 9.24 0 14 0 C14.38333496 1.00377686 14.76666992 2.00755371 15.16162109 3.04174805 C16.58879791 6.77855258 18.01649042 10.51515992 19.44433594 14.25170898 C20.06133791 15.86656436 20.67820146 17.48147262 21.29492188 19.09643555 C22.18322636 21.42250383 23.07203432 23.7483792 23.9609375 26.07421875 C24.23497406 26.79212082 24.50901062 27.51002289 24.79135132 28.24967957 C25.88861834 31.11952838 26.9909632 33.97867618 28.18994141 36.80786133 C29 39 29 39 29 42 C29.66 42 30.32 42 31 42 C31.10505859 41.17927002 31.21011719 40.35854004 31.31835938 39.51293945 C32.11550071 35.4047494 33.43214636 31.69889707 34.90625 27.79296875 C35.19101196 27.02696854 35.47577393 26.26096832 35.76916504 25.47175598 C36.36844816 23.86310694 36.97034185 22.25542827 37.57470703 20.64868164 C38.50274078 18.1802098 39.42191094 15.70857162 40.33984375 13.23632812 C40.92396372 11.67168247 41.50858148 10.10722255 42.09375 8.54296875 C42.36981079 7.80137009 42.64587158 7.05977142 42.93029785 6.29570007 C44.88395855 1.11604145 44.88395855 1.11604145 46 0 C50.62 0 55.24 0 60 0 C60 19.47 60 38.94 60 59 C56.7 59 53.4 59 50 59 C49 58 49 58 48.88647461 54.39819336 C48.88663375 52.79540144 48.89232937 51.1926044 48.90234375 49.58984375 C48.9037587 48.74780899 48.90517365 47.90577423 48.90663147 47.03822327 C48.91224737 44.33794665 48.92480252 41.63775172 48.9375 38.9375 C48.94251295 37.11132932 48.94707621 35.28515734 48.95117188 33.45898438 C48.96222196 28.97262458 48.97949721 24.48632616 49 20 C48.37955811 21.66554932 48.37955811 21.66554932 47.74658203 23.36474609 C46.21269956 27.47798356 44.67165626 31.58850676 43.12841797 35.69824219 C42.46109033 37.47843202 41.79571539 39.25935511 41.13232422 41.04101562 C40.17926427 43.59960407 39.21924731 46.15548623 38.2578125 48.7109375 C37.96190216 49.50994476 37.66599182 50.30895203 37.3611145 51.13217163 C35.22774341 56.77225659 35.22774341 56.77225659 33 59 C30.0625 59.375 30.0625 59.375 27 59 C23.77839653 55.69476633 22.44276879 51.41996993 20.86328125 47.171875 C20.61074585 46.50752441 20.35821045 45.84317383 20.09802246 45.15869141 C19.16245325 42.69179421 18.23813242 40.22064286 17.3125 37.75 C15.229375 32.2225 13.14625 26.695 11 21 C11 33.54 11 46.08 11 59 C7.37 59 3.74 59 0 59 C0 39.53 0 20.06 0 0 Z " fill="#101010" transform="translate(256,715)"/>
<path d="M0 0 C31.57727273 0 31.57727273 0 36.9609375 4.71875 C37.42757812 5.3065625 37.89421875 5.894375 38.375 6.5 C38.85710938 7.0878125 39.33921875 7.675625 39.8359375 8.28125 C42.67424987 12.47204679 42.45830517 17.14196524 42 22 C40.28297609 26.69922333 37.76042923 29.72167708 34 33 C33.34 33 32.68 33 32 33 C33.0598463 35.14718142 34.12222614 37.29301105 35.1875 39.4375 C35.50340088 40.07405518 35.81930176 40.71061035 36.14477539 41.36645508 C38.33313624 45.74594615 40.64919166 50.0209879 43.15234375 54.23046875 C44 56 44 56 44 59 C42.39667209 59.08121924 40.79215974 59.13929134 39.1875 59.1875 C37.84751953 59.23970703 37.84751953 59.23970703 36.48046875 59.29296875 C33.44717717 58.93470596 32.93030673 58.29538787 31 56 C29.90014648 53.93115234 29.90014648 53.93115234 28.87109375 51.5859375 C28.47470703 50.74289062 28.07832031 49.89984375 27.66992188 49.03125 C26.85008292 47.2642437 26.05554025 45.48527372 25.28710938 43.6953125 C24.88169922 42.85484375 24.47628906 42.014375 24.05859375 41.1484375 C23.71111084 40.37677246 23.36362793 39.60510742 23.00561523 38.81005859 C20.20457886 35.92258836 20.20457886 35.92258836 11 36 C11 43.59 11 51.18 11 59 C7.37 59 3.74 59 0 59 C0 39.53 0 20.06 0 0 Z " fill="#0D0D0D" transform="translate(0,715)"/>
<path d="M0 0 C6.26648536 2.95385856 10.90698029 7.54448801 13.8125 13.84375 C15.84621287 20.5831283 15.70470574 27.87777324 12.546875 34.21484375 C8.91183494 39.78515866 4.00990418 43.77683492 -2.390625 45.71484375 C-9.1832252 47.00424144 -15.5751639 45.91993161 -21.6015625 42.55859375 C-27.38810656 38.55440292 -30.32404877 33.59246464 -32.046875 26.82421875 C-33.05976784 20.47415977 -31.89343533 14.76533084 -28.82421875 9.1328125 C-26.31823813 5.74152818 -23.01886024 3.46414231 -19.453125 1.27734375 C-18.83953125 0.9009375 -18.2259375 0.52453125 -17.59375 0.13671875 C-12.31684848 -1.98174536 -5.38880207 -1.58746558 0 0 Z " fill="#F6F6F6" transform="translate(985.453125,450.72265625)"/>
<path d="M0 0 C5.47181631 4.50692013 6.94353819 9.13299823 8 16 C4.37 16 0.74 16 -3 16 C-3.4125 14.88625 -3.825 13.7725 -4.25 12.625 C-5.23513768 10.37779653 -5.80276555 9.16801453 -7.6875 7.5625 C-11.9915816 6.51556123 -16.14724001 6.52493334 -20.4375 7.625 C-22.26689436 9.00751435 -22.26689436 9.00751435 -23 11.875 C-23.30702977 14.98791485 -23.30702977 14.98791485 -21.5546875 16.98046875 C-17.43797985 20.23480798 -12.64613735 21.56353314 -7.73046875 23.26757812 C-1.93655355 25.37401818 2.68409324 27.67088403 6.3125 32.88671875 C8.45574492 38.50055913 8.37396318 43.4328236 6 49 C2.75428876 53.03431116 -1.08855697 55.42691462 -6 57 C-15.33138957 57.85844325 -22.91806758 57.38795495 -30.8125 52.125 C-35.2565575 47.80791557 -36.39884113 44.1318205 -37 38 C-33.37 38 -29.74 38 -26 38 C-25.0234375 40.63671875 -25.0234375 40.63671875 -24.046875 43.2734375 C-22.65242452 45.57324015 -21.52721378 46.10907996 -19 47 C-16.28312503 47.31507687 -16.28312503 47.31507687 -13.4375 47.25 C-12.01244141 47.25773438 -12.01244141 47.25773438 -10.55859375 47.265625 C-7.75900727 47.17576075 -7.75900727 47.17576075 -5 45 C-4.63702064 43.02252878 -4.63702064 43.02252878 -4.8125 40.875 C-4.874375 39.59625 -4.93625 38.3175 -5 37 C-10.34953807 34.21871361 -15.69312864 31.69343492 -21.3125 29.5 C-25.98489351 27.59865373 -28.83619468 25.90202657 -32 22 C-32.66 21.34 -33.32 20.68 -34 20 C-35.21975312 15.30137354 -35.77668273 10.60465366 -33.5 6.1875 C-30.74223577 2.13703379 -26.81263486 -1.06639431 -22.140625 -2.6171875 C-14.8293679 -3.92467508 -6.45882116 -4.05118024 0 0 Z " fill="#131313" transform="translate(927,717)"/>
<path d="M0 0 C12.87 0 25.74 0 39 0 C39 2.97 39 5.94 39 9 C29.76 9 20.52 9 11 9 C11 13.95 11 18.9 11 24 C18.92 24 26.84 24 35 24 C35 26.97 35 29.94 35 33 C27.08 33 19.16 33 11 33 C11 38.28 11 43.56 11 49 C20.24 49 29.48 49 39 49 C39 51.97 39 54.94 39 58 C38 59 38 59 34.39819336 59.11352539 C32.79540145 59.11327429 31.19260413 59.1077126 29.58984375 59.09765625 C28.84383911 59.09664917 28.09783447 59.09564209 27.32922363 59.09460449 C24.53196687 59.08935689 21.73473196 59.07539573 18.9375 59.0625 C12.688125 59.041875 6.43875 59.02125 0 59 C0 39.53 0 20.06 0 0 Z " fill="#101010" transform="translate(130,715)"/>
<path d="M0 0 C12.54 0 25.08 0 38 0 C38 2.97 38 5.94 38 9 C29.09 9 20.18 9 11 9 C11 13.95 11 18.9 11 24 C18.59 24 26.18 24 34 24 C34 26.97 34 29.94 34 33 C26.41 33 18.82 33 11 33 C11 38.28 11 43.56 11 49 C19.91 49 28.82 49 38 49 C38.495 53.455 38.495 53.455 39 58 C38 59 38 59 34.39819336 59.11352539 C32.79540145 59.11327429 31.19260413 59.1077126 29.58984375 59.09765625 C28.84383911 59.09664917 28.09783447 59.09564209 27.32922363 59.09460449 C24.53196687 59.08935689 21.73473196 59.07539573 18.9375 59.0625 C12.688125 59.041875 6.43875 59.02125 0 59 C0 39.53 0 20.06 0 0 Z " fill="#0F0F0F" transform="translate(768,715)"/>
<path d="M0 0 C12.54 0 25.08 0 38 0 C38 2.97 38 5.94 38 9 C24.635 9.495 24.635 9.495 11 10 C11 14.62 11 19.24 11 24 C18.59 24 26.18 24 34 24 C34 26.97 34 29.94 34 33 C26.41 33.33 18.82 33.66 11 34 C11 38.62 11 43.24 11 48 C24.365 48.495 24.365 48.495 38 49 C38 52.3 38 55.6 38 59 C25.46 59 12.92 59 0 59 C0 39.53 0 20.06 0 0 Z " fill="#0E0E0E" transform="translate(407,715)"/>
<path d="M0 0 C12.75862069 0 12.75862069 0 17 3 C23.07130828 9.40860318 23.53611414 15.72903205 23.31640625 24.25390625 C22.77639683 30.6473511 21.02562092 35.02378447 16.4375 39.5 C10.57270168 43.10910666 8.07734806 42 0 42 C0 28.14 0 14.28 0 0 Z " fill="#FAFAFA" transform="translate(543,723)"/>
<path d="M0 0 C3.63 0 7.26 0 11 0 C11 19.47 11 38.94 11 59 C7.37 59 3.74 59 0 59 C0 39.53 0 20.06 0 0 Z " fill="#0A0A0A" transform="translate(666,715)"/>
<path d="M0 0 C6.26648536 2.95385856 10.90698029 7.54448801 13.8125 13.84375 C15.84621287 20.5831283 15.70470574 27.87777324 12.546875 34.21484375 C8.91183494 39.78515866 4.00990418 43.77683492 -2.390625 45.71484375 C-9.1832252 47.00424144 -15.5751639 45.91993161 -21.6015625 42.55859375 C-27.38810656 38.55440292 -30.32404877 33.59246464 -32.046875 26.82421875 C-33.05976784 20.47415977 -31.89343533 14.76533084 -28.82421875 9.1328125 C-26.31823813 5.74152818 -23.01886024 3.46414231 -19.453125 1.27734375 C-18.83953125 0.9009375 -18.2259375 0.52453125 -17.59375 0.13671875 C-12.31684848 -1.98174536 -5.38880207 -1.58746558 0 0 Z M-24.89453125 10.84765625 C-28.32693753 15.7989322 -28.27761038 21.48096167 -27.453125 27.27734375 C-25.51665792 33.4906071 -22.22134344 37.05506108 -16.625 40.35546875 C-11.83069525 42.39046141 -6.1437924 41.96265904 -1.16796875 40.6953125 C4.59916581 38.26178173 8.18848402 34.0195131 10.546875 28.27734375 C11.7846741 21.98798615 11.35008096 16.79310985 7.984375 11.27734375 C4.16285215 6.39182381 0.93088716 3.81141271 -5.25 2.8359375 C-13.7062082 2.33156975 -19.18318015 4.62553391 -24.89453125 10.84765625 Z " fill="#1E1E1E" transform="translate(985.453125,450.72265625)"/>
<path d="M0 0 C0.33 0 0.66 0 1 0 C1 65.01 1 130.02 1 197 C12.55 197 24.1 197 36 197 C36 131.99 36 66.98 36 0 C36.33 0 36.66 0 37 0 C37 65.67 37 131.34 37 199 C24.46 199 11.92 199 -1 199 C-0.67 133.33 -0.34 67.66 0 0 Z " fill="#056726" transform="translate(895,469)"/>
<path d="M0 0 C2.206875 -0.061875 4.41375 -0.12375 6.6875 -0.1875 C8.54955078 -0.23970703 8.54955078 -0.23970703 10.44921875 -0.29296875 C15.20179198 0.09915775 17.68203836 1.68203836 21 5 C21.57039258 8.05610339 21.5337277 10.94031349 21 14 C18.81840855 16.75569447 17.12822506 18.43588747 14 20 C9.33091139 20.13996069 4.67201378 20.04247285 0 20 C0 13.4 0 6.8 0 0 Z " fill="#F5F5F5" transform="translate(10,723)"/>
<path d="M0 0 C13.3107415 -0.4033558 13.3107415 -0.4033558 18 3 C18.33 3.33 18.66 3.66 19 4 C18.4 10.6 18.4 10.6 16 13 C15.01 13 14.02 13 13 13 C13.5053125 13.69867188 14.010625 14.39734375 14.53125 15.1171875 C15.1809375 16.02726562 15.830625 16.93734375 16.5 17.875 C17.1496875 18.77992188 17.799375 19.68484375 18.46875 20.6171875 C20 23 20 23 20 25 C17.6875 24.78125 17.6875 24.78125 15 24 C13.23681551 21.79601939 11.99661449 19.49392146 10.625 17.03125 C8.89423702 14.42141426 8.89423702 14.42141426 4 14 C4 17.63 4 21.26 4 25 C2.68 25 1.36 25 0 25 C0 16.75 0 8.5 0 0 Z " fill="#0F0F0F" transform="translate(967,461)"/>
<path d="M0 0 C1.258125 -0.04125 2.51625 -0.0825 3.8125 -0.125 C4.52019531 -0.14820313 5.22789062 -0.17140625 5.95703125 -0.1953125 C8 0 8 0 11 2 C10.625 4.4375 10.625 4.4375 10 7 C6.78548731 8.60725635 3.56387464 8.05748185 0 8 C0 5.36 0 2.72 0 0 Z " fill="#E8E8E8" transform="translate(971,464)"/>
<path d="M0 0 C0.66 0.33 1.32 0.66 2 1 C-0.07723687 3.13126904 -2.16131164 5.25500368 -4.25 7.375 C-5.12978516 8.27992188 -5.12978516 8.27992188 -6.02734375 9.203125 C-6.60097656 9.78320312 -7.17460937 10.36328125 -7.765625 10.9609375 C-8.28930664 11.49509277 -8.81298828 12.02924805 -9.35253906 12.57958984 C-11.12546516 14.10817372 -12.87264893 15.0414787 -15 16 C-12.7231795 9.29797453 -7.77784158 4.9927994 -2.125 0.9375 C-1.073125 0.4734375 -1.073125 0.4734375 0 0 Z " fill="#257338" transform="translate(187,542)"/>
<path d="M0 0 C0.99 0.66 1.98 1.32 3 2 C-0.63 5.63 -4.26 9.26 -8 13 C-8.99 12.67 -9.98 12.34 -11 12 C-3.70159453 3.55353075 -3.70159453 3.55353075 0 0 Z " fill="#2C763C" transform="translate(742,542)"/>
<path d="M0 0 C1.32 0.33 2.64 0.66 4 1 C0.04 4.96 -3.92 8.92 -8 13 C-8.33 11.68 -8.66 10.36 -9 9 C-7.26953125 6.60546875 -7.26953125 6.60546875 -4.8125 4.1875 C-4.01457031 3.37667969 -3.21664062 2.56585937 -2.39453125 1.73046875 C-1.60433594 1.15941406 -0.81414063 0.58835937 0 0 Z " fill="#267438" transform="translate(624,541)"/>
<path d="M0 0 C0.33 0 0.66 0 1 0 C1 2.97 1 5.94 1 9 C0.34 9 -0.32 9 -1 9 C-1 13.95 -1 18.9 -1 24 C-1.66 24 -2.32 24 -3 24 C-3.40735653 15.49077472 -2.43092956 8.1609778 0 0 Z " fill="#EACA4D" transform="translate(374,252)"/>
<path d="M0 0 C1.4606285 2.64738916 2 3.89448334 2 7 C-1.63 7 -5.26 7 -9 7 C-9.33 5.35 -9.66 3.7 -10 2 C-9.67 2.99 -9.34 3.98 -9 5 C-6.03 5 -3.06 5 0 5 C0 3.35 0 1.7 0 0 Z " fill="#767676" transform="translate(933,726)"/>
<path d="M0 0 C0.99 0.33 1.98 0.66 3 1 C2.04578192 2.14926266 1.08647955 3.29430541 0.125 4.4375 C-0.40867187 5.07558594 -0.94234375 5.71367187 -1.4921875 6.37109375 C-3 8 -3 8 -5 9 C-5.66 8.34 -6.32 7.68 -7 7 C-4.69 4.69 -2.38 2.38 0 0 Z " fill="#6EAC46" transform="translate(615,190)"/>
<path d="M0 0 C0.33 0.66 0.66 1.32 1 2 C1.66 2.33 2.32 2.66 3 3 C2.67 3.66 2.34 4.32 2 5 C2.66 5 3.32 5 4 5 C7.10096154 10.45769231 7.10096154 10.45769231 6.58984375 13.203125 C6.39519531 13.79609375 6.20054687 14.3890625 6 15 C4.99267601 13.06629769 3.99436712 11.12789694 3 9.1875 C2.443125 8.10855469 1.88625 7.02960937 1.3125 5.91796875 C0 3 0 3 0 0 Z " fill="#488551" transform="translate(335,632)"/>
<path d="M0 0 C-1.40844718 3.21524305 -3.10344786 5.32183868 -5.625 7.75 C-6.57246094 8.67039062 -6.57246094 8.67039062 -7.5390625 9.609375 C-8.02117188 10.06828125 -8.50328125 10.5271875 -9 11 C-9.33 10.01 -9.66 9.02 -10 8 C-8.71451591 6.66070495 -7.42141845 5.32871357 -6.125 4 C-5.04605469 2.88625 -5.04605469 2.88625 -3.9453125 1.75 C-2 0 -2 0 0 0 Z " fill="#6AAA44" transform="translate(837,373)"/>
<path d="M0 0 C0 0.66 0 1.32 0 2 C-5.61 1.34 -11.22 0.68 -17 0 C-17 -0.33 -17 -0.66 -17 -1 C-10.77104914 -2.13253652 -6.08251096 -1.70366626 0 0 Z " fill="#337941" transform="translate(800,559)"/>
<path d="M0 0 C0.66 0 1.32 0 2 0 C3.61949011 2.57213134 4.04408751 3.67669159 3.625 6.75 C3.41875 7.4925 3.2125 8.235 3 9 C3.66 9.33 4.32 9.66 5 10 C5 12.31 5 14.62 5 17 C2.215707 14.215707 2.05089931 11.113137 1.375 7.375 C1.2409375 6.66859375 1.106875 5.9621875 0.96875 5.234375 C0.63889975 3.49088082 0.31853944 1.74559611 0 0 Z " fill="#E7CA52" transform="translate(371,277)"/>
<path d="M0 0 C1.13199353 0.9080162 2.25532363 1.82683826 3.375 2.75 C4.00148437 3.26046875 4.62796875 3.7709375 5.2734375 4.296875 C7.08312318 6.08199481 8.00117455 7.67949644 9 10 C5.17647894 8.4422692 2.70794407 6.08404742 0 3 C0 2.01 0 1.02 0 0 Z " fill="#2E7941" transform="translate(175,649)"/>
<path d="M0 0 C4.61513112 1.31860889 8.09897612 3.21355437 12 6 C9 7 9 7 6.73828125 6.00390625 C5.93777344 5.52824219 5.13726562 5.05257812 4.3125 4.5625 C3.50425781 4.08941406 2.69601563 3.61632812 1.86328125 3.12890625 C1.24839844 2.75636719 0.63351563 2.38382813 0 2 C0 1.34 0 0.68 0 0 Z " fill="#3B7D48" transform="translate(100,535)"/>
<path d="M0 0 C1.17539996 0.92652701 2.34010577 1.86663387 3.5 2.8125 C4.1496875 3.33457031 4.799375 3.85664062 5.46875 4.39453125 C7 6 7 6 7 9 C5.82460004 8.07347299 4.65989423 7.13336613 3.5 6.1875 C2.52546875 5.40439453 2.52546875 5.40439453 1.53125 4.60546875 C0 3 0 3 0 0 Z " fill="#5676B6" transform="translate(428,31)"/>
<path d="M0 0 C0.6875 1.6875 0.6875 1.6875 1 4 C-0.3125 6.75 -0.3125 6.75 -2 9 C-2.66 9 -3.32 9 -4 9 C-2.94124926 5.59687262 -1.99097846 2.98646769 0 0 Z " fill="#387C44" transform="translate(171,558)"/>
<path d="M0 0 C3.34249629 0.59687434 5.46436342 1.73603877 8 4 C8 4.66 8 5.32 8 6 C4.08597051 4.73058503 2.20927127 3.48832306 0 0 Z " fill="#317940" transform="translate(814,536)"/>
<path d="M0 0 C5.75 1.625 5.75 1.625 8 5 C4.62537285 4.45276317 2.91765 3.9451 0 2 C0 1.34 0 0.68 0 0 Z " fill="#74AE4F" transform="translate(839,319)"/>
</svg>
