<?xml version="1.0" encoding="UTF-8"?> <svg xmlns="http://www.w3.org/2000/svg" viewBox="0 0 408.68 61.1"> <defs> <style>.cls-1{fill:#ed8b00;}.cls-2{fill:#009639;}</style> </defs> <title>pim_logoElement 1logo</title> <g id="Ebene_2" data-name="Ebene 2"> <g id="Ebene_2-2" data-name="Ebene 2"> <path class="cls-1" d="M184.42,36.29A7.46,7.46,0,1,1,177,28.83,7.46,7.46,0,0,1,184.42,36.29Z"></path> <path class="cls-2" d="M11.25,57.42H0V14.06H17.88c5.07,0,8.06,1,10.85,3.64A13.85,13.85,0,0,1,33,28.3C33,37.92,27.89,43,18.27,43h-7ZM15,34c4.36,0,6.24-1.69,6.24-5.52,0-3.51-2.08-5.33-6.17-5.33H11.25V34Z"></path> <path class="cls-2" d="M63.25,30.83V14.06H74.49V57.42H63.25V39.61H46.93V57.42H35.69V14.06H46.93V30.83Z"></path> <path class="cls-2" d="M76,14.06H89.46l8.2,11.83,7.86-11.83h13.65L102.92,36.62v20.8H91.68V36.62Z"></path> <path class="cls-1" d="M248.78,57.36H237.54V14h11.24Z"></path> <path class="cls-1" d="M298.66,35.77c0,13.2-10.27,23.14-24,23.14s-24-9.94-24-23.14S261,12.7,274.67,12.7,298.66,22.58,298.66,35.77Zm-36.21,0a12.22,12.22,0,1,0,12.22-12.15A12.2,12.2,0,0,0,262.45,35.77Z"></path> <path class="cls-1" d="M317.41,57.36H306.16V23.55H297V14h29.77v9.55h-9.36Z"></path> <path class="cls-1" d="M339.7,57.36H328.46V14H339.7Z"></path> <path class="cls-1" d="M374.75,28.76A12.13,12.13,0,0,0,365,24c-6.76,0-11.63,5-11.63,12A11.31,11.31,0,0,0,365,47.61c3.71,0,6.83-1.44,9.75-4.56V56.38c-5.26,1.75-7,2.15-9.94,2.15-13.07,0-23.21-9.89-23.21-22.63a22.79,22.79,0,0,1,22.95-22.81,25.3,25.3,0,0,1,10.2,2.21Z"></path> <path class="cls-1" d="M402.44,25.24A11.47,11.47,0,0,0,395,22.32c-2.66,0-4.81,1.62-4.81,3.7,0,1.37,1,2.47,2.93,3.38.58.26,1,.39,4.87,1.57,7.54,2.2,10.66,5.78,10.66,12,0,9.75-6.24,15.47-16.9,15.47a26.34,26.34,0,0,1-15.08-4.88l4.81-9.1c3.45,3,6.63,4.42,9.95,4.42s5.46-1.68,5.46-4.22c0-2.34-1.5-3.45-6.76-5-4.94-1.43-6.83-2.27-8.45-3.64-2.15-1.88-3.25-4.68-3.25-8.45,0-8.71,6-14.62,14.75-14.62a30,30,0,0,1,13.72,3.51Z"></path> <path class="cls-2" d="M149.26,24.58c3.76-10.1,10.86-11.76,15.66-14.09l.76-.38a15.12,15.12,0,0,0,.42-1.9,42,42,0,0,0,.48-6.09c0-.82,0-1.53-.08-2.12a31.69,31.69,0,0,1-7.38,7.71h0c-4.63,3.49-10.21,5.74-11.92,15.55a17.23,17.23,0,0,0-.23,2.83A20.65,20.65,0,0,0,148,32.5c0-.24,0-.47,0-.72A20.66,20.66,0,0,1,149.26,24.58Z"></path> <path class="cls-1" d="M165.8,12.29c-5.21,2.54-11.12,3.69-14.67,13A18.53,18.53,0,0,0,150,31.78a24.32,24.32,0,0,0,.47,4.63,26.11,26.11,0,0,1,8.36-8.84c3.32-2.33,4.81-3,7.47-5a19.36,19.36,0,0,0,6.24-8.43,37.94,37.94,0,0,0,2-8,31.81,31.81,0,0,1-8.72,6.16Z"></path> <path class="cls-2" d="M143.72,22.74A22.8,22.8,0,0,1,147,14.06H120.39v9.56h9.16v33.8H140.8V23.62h2.81C143.65,23.33,143.67,23,143.72,22.74Z"></path> <path class="cls-2" d="M176.81,11.47c-.45,0-.9,0-1.35,0-.28,1-.61,2.09-1,3.27a21.35,21.35,0,0,1-6.9,9.36c-2.82,2.14-4.34,2.82-7.55,5.07-5.18,3.64-7.15,6.79-8.63,9.88,1.44,12.38,12.29,22,25.46,22C191,61.1,202.44,50,202.44,36.29S191,11.47,176.81,11.47Zm0,34.16a9.32,9.32,0,1,1,9.26-9.37A9.32,9.32,0,0,1,176.81,45.63Z"></path> <path class="cls-1" d="M226.75,34.2c3.38-2,4.75-4.61,4.75-9,0-7.35-4.29-11.32-12.22-11.32H202.57v7.57a27.88,27.88,0,0,1,0,29.3v6.49h18.07c9.36,0,15-4.68,15-12.48C235.59,38.69,232.86,35.37,226.75,34.2ZM213.82,22.51h2.08c3.44,0,5.26,1.49,5.26,4.22S219.34,31,215.9,31h-2.08Zm2.47,26h-2.47V39.4h2.27c3.71,0,4.68.13,6,.78A4.18,4.18,0,0,1,224.22,44C224.22,47.14,221.81,48.5,216.29,48.5Z"></path> </g> </g> </svg> 